<svg width="270" height="83" viewBox="0 0 270 83" fill="none" xmlns="http://www.w3.org/2000/svg">
<path d="M43.7402 19.0642C45.8423 13.3421 52.1851 10.4075 57.9072 12.5096L85.5152 22.6518C91.2373 24.7539 94.1719 31.0966 92.0698 36.8187L81.9276 64.4268C79.8255 70.1489 73.4827 73.0835 67.7606 70.9814L40.1526 60.8392C34.4305 58.7371 31.4959 52.3943 33.598 46.6722L43.7402 19.0642Z" fill="#210F47"/>
<path fill-rule="evenodd" clip-rule="evenodd" d="M82.4702 30.9404L54.8622 20.7982C53.7178 20.3778 52.4493 20.9647 52.0288 22.1091L41.8866 49.7171C41.4662 50.8616 42.0531 52.1301 43.1976 52.5505L70.8056 62.6927C71.95 63.1132 73.2185 62.5262 73.639 61.3818L83.7812 33.7738C84.2016 32.6294 83.6147 31.3608 82.4702 30.9404ZM57.9072 12.5096C52.1851 10.4075 45.8423 13.3421 43.7402 19.0642L33.598 46.6722C31.4959 52.3943 34.4305 58.7371 40.1526 60.8392L67.7606 70.9814C73.4827 73.0835 79.8255 70.1489 81.9276 64.4268L92.0698 36.8187C94.1719 31.0966 91.2373 24.7539 85.5152 22.6518L57.9072 12.5096Z" fill="#2A0757"/>
<path d="M46.1005 17.9722C48.2026 12.2501 54.5454 9.31554 60.2675 11.4176L87.8755 21.5598C93.5977 23.6619 96.5323 30.0047 94.4302 35.7268L84.288 63.3348C82.1859 69.0569 75.8431 71.9915 70.121 69.8894L42.513 59.7472C36.7908 57.6451 33.8562 51.3024 35.9583 45.5803L46.1005 17.9722Z" fill="url(#paint0_angular)"/>
<path fill-rule="evenodd" clip-rule="evenodd" d="M86.8859 24.2536L59.2779 14.1114C55.0436 12.5559 50.3499 14.7275 48.7944 18.9619L38.6522 46.5699C37.0966 50.8042 39.2682 55.4979 43.5026 57.0534L71.1106 67.1956C75.3449 68.7512 80.0386 66.5796 81.5942 62.3452L91.7364 34.7372C93.2919 30.5029 91.1203 25.8092 86.8859 24.2536ZM60.2675 11.4176C54.5454 9.31554 48.2026 12.2501 46.1005 17.9722L35.9583 45.5803C33.8562 51.3024 36.7908 57.6451 42.513 59.7472L70.121 69.8894C75.8431 71.9915 82.1859 69.0569 84.288 63.3348L94.4302 35.7268C96.5323 30.0047 93.5977 23.6619 87.8755 21.5598L60.2675 11.4176Z" fill="#2A0757"/>
<path d="M72.3139 40.253C73.4023 41.5581 72.6698 43.552 70.9954 43.8421L60.1402 45.7227C58.4658 46.0127 57.1052 44.3814 57.6912 42.7863L61.4902 32.4452C62.0762 30.85 64.1692 30.4874 65.2577 31.7925L72.3139 40.253Z" fill="#210F47"/>
<path fill-rule="evenodd" clip-rule="evenodd" d="M70.9954 43.8421C72.6698 43.552 73.4023 41.5581 72.3139 40.253L65.2577 31.7925C64.1692 30.4874 62.0762 30.85 61.4902 32.4452L57.6912 42.7863C57.1052 44.3814 58.4658 46.0127 60.1402 45.7227L70.9954 43.8421Z" fill="#FBF8FF"/>
<path d="M0 38.6205C0 32.5244 4.94179 27.5826 11.0378 27.5826H40.4498C46.5458 27.5826 51.4876 32.5244 51.4876 38.6205V68.0325C51.4876 74.1285 46.5458 79.0703 40.4498 79.0703H11.0378C4.9418 79.0703 0 74.1285 0 68.0325V38.6205Z" fill="#210F47"/>
<path fill-rule="evenodd" clip-rule="evenodd" d="M40.4498 36.4129H11.0378C9.81861 36.4129 8.83025 37.4012 8.83025 38.6205V68.0325C8.83025 69.2517 9.8186 70.24 11.0378 70.24H40.4498C41.669 70.24 42.6574 69.2517 42.6574 68.0325V38.6205C42.6574 37.4012 41.669 36.4129 40.4498 36.4129ZM11.0378 27.5826C4.94179 27.5826 0 32.5244 0 38.6205V68.0325C0 74.1285 4.9418 79.0703 11.0378 79.0703H40.4498C46.5458 79.0703 51.4876 74.1285 51.4876 68.0325V38.6205C51.4876 32.5244 46.5458 27.5826 40.4498 27.5826H11.0378Z" fill="#2A0757"/>
<path d="M1.83887 36.7816C1.83887 30.6856 6.78066 25.7438 12.8767 25.7438H42.2887C48.3847 25.7438 53.3265 30.6856 53.3265 36.7816V66.1936C53.3265 72.2896 48.3847 77.2314 42.2887 77.2314H12.8767C6.78066 77.2314 1.83887 72.2896 1.83887 66.1936V36.7816Z" fill="url(#paint1_linear)"/>
<path fill-rule="evenodd" clip-rule="evenodd" d="M42.2887 28.6136H12.8767C8.36563 28.6136 4.7087 32.2705 4.7087 36.7816V66.1936C4.7087 70.7047 8.36563 74.3616 12.8767 74.3616H42.2887C46.7997 74.3616 50.4567 70.7047 50.4567 66.1936V36.7816C50.4567 32.2705 46.7997 28.6136 42.2887 28.6136ZM12.8767 25.7438C6.78066 25.7438 1.83887 30.6856 1.83887 36.7816V66.1936C1.83887 72.2896 6.78066 77.2314 12.8767 77.2314H42.2887C48.3847 77.2314 53.3265 72.2896 53.3265 66.1936V36.7816C53.3265 30.6856 48.3847 25.7438 42.2887 25.7438H12.8767Z" fill="#2A0757"/>
<path d="M33.3761 54.347C33.4932 54.7978 34.1382 54.7835 34.2352 54.328L37.1163 40.8041C37.1597 40.6003 37.3398 40.4546 37.5481 40.4546H41.7281C42.0153 40.4546 42.226 40.7245 42.1564 41.0031L36.8648 62.1862C36.8156 62.3828 36.639 62.5207 36.4364 62.5207H31.9641C31.7652 62.5207 31.5909 62.3877 31.5383 62.1959L28.0085 49.3135C27.8899 48.8804 27.2756 48.8804 27.1569 49.3135L23.6271 62.1959C23.5746 62.3877 23.4002 62.5207 23.2013 62.5207H18.729C18.5264 62.5207 18.3498 62.3828 18.3007 62.1862L13.009 41.0031C12.9394 40.7245 13.1501 40.4546 13.4373 40.4546H17.6178C17.826 40.4546 18.0058 40.6 18.0495 40.8035L20.9472 54.3101C21.0448 54.7648 21.6884 54.7791 21.8061 54.3291L25.3462 40.7845C25.397 40.5901 25.5725 40.4546 25.7734 40.4546H29.4257C29.6268 40.4546 29.8024 40.5905 29.853 40.7851L33.3761 54.347Z" fill="#210F47"/>
<path fill-rule="evenodd" clip-rule="evenodd" d="M29.853 40.7851C29.8024 40.5905 29.6268 40.4546 29.4257 40.4546H25.7734C25.5725 40.4546 25.397 40.5901 25.3462 40.7845L21.8061 54.3291C21.6884 54.7791 21.0448 54.7648 20.9472 54.3101L18.0495 40.8035C18.0058 40.6 17.826 40.4546 17.6178 40.4546H13.4373C13.1501 40.4546 12.9394 40.7245 13.009 41.0031L18.3007 62.1862C18.3498 62.3828 18.5264 62.5207 18.729 62.5207H23.2013C23.4002 62.5207 23.5746 62.3877 23.6271 62.1959L27.1569 49.3135C27.2756 48.8804 27.8899 48.8804 28.0085 49.3135L31.5383 62.1959C31.5909 62.3877 31.7652 62.5207 31.9641 62.5207H36.4364C36.639 62.5207 36.8156 62.3828 36.8648 62.1862L42.1564 41.0031C42.226 40.7245 42.0153 40.4546 41.7281 40.4546H37.5481C37.3398 40.4546 37.1597 40.6003 37.1163 40.8041L34.2352 54.328C34.1382 54.7835 33.4932 54.7978 33.3761 54.347L29.853 40.7851Z" fill="#FBF8FF"/>
<path d="M128.334 39.2875C128.511 39.5667 128.664 39.9475 128.791 40.4298C128.943 40.8867 129.019 41.3691 129.019 41.8768C129.019 42.8668 128.803 43.5775 128.372 44.0091C127.966 44.4153 127.407 44.6183 126.696 44.6183H118.7V48.9211H127.039C127.242 49.2003 127.407 49.5684 127.534 50.0253C127.686 50.4823 127.763 50.9646 127.763 51.4723C127.763 52.4369 127.547 53.135 127.115 53.5665C126.709 53.9727 126.151 54.1758 125.44 54.1758H118.776V62.2101C118.497 62.2863 118.053 62.3624 117.444 62.4386C116.86 62.5147 116.276 62.5528 115.692 62.5528C115.108 62.5528 114.588 62.502 114.131 62.4005C113.699 62.3243 113.331 62.172 113.027 61.9436C112.722 61.7151 112.494 61.3978 112.341 60.9916C112.189 60.5855 112.113 60.0524 112.113 59.3924V42.8287C112.113 41.7371 112.43 40.874 113.065 40.2394C113.699 39.6048 114.562 39.2875 115.654 39.2875H128.334ZM138.434 62.3243C138.155 62.3751 137.736 62.4386 137.177 62.5147C136.644 62.6163 136.098 62.667 135.54 62.667C134.981 62.667 134.474 62.629 134.017 62.5528C133.585 62.4767 133.217 62.3243 132.913 62.0959C132.608 61.8674 132.367 61.5628 132.189 61.182C132.037 60.7759 131.961 60.2555 131.961 59.6208V37.5359C132.24 37.4852 132.646 37.4217 133.179 37.3455C133.738 37.244 134.296 37.1932 134.854 37.1932C135.413 37.1932 135.908 37.2313 136.34 37.3075C136.796 37.3836 137.177 37.5359 137.482 37.7644C137.786 37.9929 138.015 38.3102 138.167 38.7163C138.345 39.0971 138.434 39.6048 138.434 40.2394V62.3243ZM150.439 58.2501C150.87 58.2501 151.34 58.212 151.847 58.1358C152.381 58.0343 152.774 57.9074 153.028 57.7551V54.7089L150.286 54.9373C149.575 54.9881 148.992 55.1404 148.535 55.3943C148.078 55.6481 147.849 56.0289 147.849 56.5366C147.849 57.0443 148.04 57.4631 148.42 57.7931C148.827 58.0978 149.499 58.2501 150.439 58.2501ZM150.134 43.2856C151.505 43.2856 152.749 43.4252 153.866 43.7045C155.008 43.9837 155.973 44.4153 156.759 44.9991C157.572 45.5576 158.194 46.281 158.625 47.1695C159.057 48.0326 159.273 49.0607 159.273 50.2538V58.7831C159.273 59.4432 159.082 59.9889 158.701 60.4205C158.346 60.8266 157.914 61.182 157.407 61.4866C155.757 62.4767 153.434 62.9717 150.439 62.9717C149.093 62.9717 147.875 62.8447 146.783 62.5909C145.717 62.337 144.79 61.9563 144.003 61.4486C143.242 60.9409 142.645 60.2936 142.214 59.5066C141.808 58.7197 141.605 57.8058 141.605 56.765C141.605 55.0135 142.125 53.6681 143.166 52.7288C144.207 51.7896 145.819 51.2057 148.002 50.9773L152.99 50.4442V50.1776C152.99 49.4415 152.66 48.9211 152 48.6165C151.365 48.2865 150.439 48.1215 149.22 48.1215C148.255 48.1215 147.316 48.223 146.402 48.4261C145.489 48.6292 144.664 48.883 143.927 49.1876C143.597 48.9592 143.318 48.6165 143.09 48.1595C142.861 47.6772 142.747 47.1822 142.747 46.6745C142.747 46.0145 142.899 45.4941 143.204 45.1133C143.534 44.7072 144.029 44.3645 144.689 44.0852C145.425 43.806 146.288 43.6029 147.278 43.476C148.294 43.3491 149.245 43.2856 150.134 43.2856ZM178.842 56.8412C178.842 58.7705 178.119 60.2809 176.672 61.3724C175.225 62.464 173.093 63.0097 170.275 63.0097C169.209 63.0097 168.219 62.9336 167.305 62.7813C166.391 62.629 165.604 62.4005 164.944 62.0959C164.309 61.7659 163.802 61.3597 163.421 60.8774C163.066 60.3951 162.888 59.8239 162.888 59.1639C162.888 58.5547 163.015 58.047 163.269 57.6408C163.522 57.2093 163.827 56.8539 164.182 56.5747C164.919 56.9808 165.756 57.3489 166.696 57.6789C167.66 57.9835 168.764 58.1358 170.008 58.1358C170.795 58.1358 171.392 58.0216 171.798 57.7931C172.23 57.5647 172.445 57.26 172.445 56.8793C172.445 56.5239 172.293 56.2446 171.988 56.0416C171.684 55.8385 171.176 55.6735 170.465 55.5466L169.323 55.3181C167.114 54.8866 165.464 54.2139 164.373 53.3C163.307 52.3607 162.774 51.028 162.774 49.3019C162.774 48.3626 162.977 47.5122 163.383 46.7507C163.789 45.9891 164.36 45.3545 165.096 44.8468C165.832 44.3391 166.708 43.9456 167.724 43.6664C168.764 43.3872 169.907 43.2475 171.151 43.2475C172.09 43.2475 172.966 43.3237 173.778 43.476C174.616 43.6029 175.339 43.806 175.948 44.0852C176.558 44.3645 177.04 44.7326 177.395 45.1895C177.751 45.621 177.928 46.1414 177.928 46.7507C177.928 47.3345 177.814 47.8422 177.586 48.2738C177.383 48.6799 177.116 49.0226 176.786 49.3019C176.583 49.1749 176.278 49.048 175.872 48.9211C175.466 48.7688 175.022 48.6418 174.54 48.5403C174.057 48.4134 173.562 48.3118 173.055 48.2357C172.572 48.1595 172.128 48.1215 171.722 48.1215C170.884 48.1215 170.237 48.223 169.78 48.4261C169.323 48.6038 169.094 48.8957 169.094 49.3019C169.094 49.5811 169.221 49.8096 169.475 49.9873C169.729 50.1649 170.211 50.3299 170.922 50.4823L172.103 50.7488C174.54 51.3073 176.266 52.0815 177.281 53.0715C178.322 54.0362 178.842 55.2927 178.842 56.8412ZM200.249 62.3243C199.995 62.4005 199.589 62.4767 199.03 62.5528C198.497 62.629 197.939 62.667 197.355 62.667C196.797 62.667 196.289 62.629 195.832 62.5528C195.4 62.4767 195.032 62.3243 194.728 62.0959C194.423 61.8674 194.182 61.5628 194.004 61.182C193.852 60.7759 193.776 60.2555 193.776 59.6208V51.1677C193.776 50.1269 193.509 49.4034 192.976 48.9972C192.468 48.5657 191.834 48.3499 191.072 48.3499C190.565 48.3499 190.082 48.4134 189.625 48.5403C189.168 48.6672 188.8 48.8195 188.521 48.9972V62.3243C188.267 62.4005 187.861 62.4767 187.303 62.5528C186.77 62.629 186.211 62.667 185.627 62.667C185.069 62.667 184.561 62.629 184.104 62.5528C183.673 62.4767 183.304 62.3243 183 62.0959C182.695 61.8674 182.454 61.5628 182.276 61.182C182.124 60.7759 182.048 60.2555 182.048 59.6208V37.5359C182.327 37.4852 182.733 37.4217 183.266 37.3455C183.825 37.244 184.383 37.1932 184.942 37.1932C185.5 37.1932 185.995 37.2313 186.427 37.3075C186.884 37.3836 187.265 37.5359 187.569 37.7644C187.874 37.9929 188.102 38.3102 188.255 38.7163C188.432 39.0971 188.521 39.6048 188.521 40.2394V43.971C188.851 43.8441 189.346 43.7045 190.006 43.5522C190.692 43.3745 191.44 43.2856 192.253 43.2856C194.766 43.2856 196.72 43.9202 198.117 45.1895C199.538 46.4334 200.249 48.2992 200.249 50.7869V62.3243ZM213.27 43.2856C214.717 43.2856 216.024 43.476 217.192 43.8568C218.385 44.2122 219.388 44.6818 220.2 45.2656C220.708 45.621 221.101 46.0145 221.38 46.446C221.685 46.8776 221.837 47.4361 221.837 48.1215V61.4486C221.837 62.794 221.584 63.949 221.076 64.9136C220.568 65.9036 219.87 66.7159 218.982 67.3506C218.118 68.0106 217.09 68.4929 215.897 68.7975C214.73 69.1021 213.473 69.2544 212.128 69.2544C209.818 69.2544 208.003 68.9371 206.683 68.3025C205.363 67.6933 204.703 66.6906 204.703 65.2944C204.703 64.7105 204.817 64.1901 205.045 63.7332C205.299 63.3017 205.578 62.9717 205.883 62.7432C206.619 63.1494 207.444 63.4921 208.358 63.7713C209.297 64.0505 210.262 64.1901 211.252 64.1901C212.623 64.1901 213.714 63.9617 214.527 63.5048C215.339 63.0478 215.745 62.3117 215.745 61.2963V60.687C214.704 61.1439 213.435 61.3724 211.937 61.3724C210.795 61.3724 209.703 61.2074 208.663 60.8774C207.647 60.522 206.746 59.9889 205.959 59.2782C205.198 58.542 204.576 57.6027 204.093 56.4604C203.636 55.3181 203.408 53.96 203.408 52.3861C203.408 50.8376 203.649 49.4922 204.131 48.3499C204.639 47.2076 205.324 46.2684 206.188 45.5322C207.076 44.7706 208.117 44.2122 209.31 43.8568C210.528 43.476 211.848 43.2856 213.27 43.2856ZM215.631 48.8069C215.453 48.7053 215.187 48.6038 214.831 48.5022C214.501 48.4007 214.082 48.3499 213.575 48.3499C212.331 48.3499 211.391 48.7053 210.757 49.4161C210.148 50.1015 209.843 51.0915 209.843 52.3861C209.843 53.8585 210.148 54.9246 210.757 55.5846C211.391 56.2193 212.191 56.5366 213.156 56.5366C214.197 56.5366 215.022 56.2954 215.631 55.8131V48.8069ZM225.698 38.7163C225.698 37.7517 226.015 36.9394 226.65 36.2794C227.31 35.6194 228.173 35.2894 229.239 35.2894C230.305 35.2894 231.156 35.6194 231.79 36.2794C232.45 36.9394 232.78 37.7517 232.78 38.7163C232.78 39.681 232.45 40.4933 231.79 41.1533C231.156 41.8133 230.305 42.1433 229.239 42.1433C228.173 42.1433 227.31 41.8133 226.65 41.1533C226.015 40.4933 225.698 39.681 225.698 38.7163ZM232.476 62.3243C232.196 62.3751 231.777 62.4386 231.219 62.5147C230.686 62.6163 230.14 62.667 229.582 62.667C229.023 62.667 228.516 62.629 228.059 62.5528C227.627 62.4767 227.259 62.3243 226.954 62.0959C226.65 61.8674 226.409 61.5628 226.231 61.182C226.079 60.7759 226.002 60.2555 226.002 59.6208V44.1233C226.282 44.0726 226.688 44.0091 227.221 43.9329C227.779 43.8314 228.338 43.7806 228.896 43.7806C229.455 43.7806 229.95 43.8187 230.381 43.8949C230.838 43.971 231.219 44.1233 231.524 44.3518C231.828 44.5803 232.057 44.8976 232.209 45.3037C232.387 45.6845 232.476 46.1922 232.476 46.8268V62.3243ZM236.673 43.8568C236.673 42.5621 236.888 41.4579 237.32 40.544C237.777 39.6048 238.386 38.8432 239.148 38.2594C239.909 37.6502 240.798 37.2059 241.813 36.9267C242.854 36.6474 243.958 36.5078 245.126 36.5078C247.004 36.5078 248.388 36.7617 249.276 37.2694C250.165 37.7517 250.609 38.5894 250.609 39.7825C250.609 40.2902 250.495 40.7471 250.266 41.1533C250.063 41.5594 249.835 41.8641 249.581 42.0671C249.099 41.9402 248.591 41.8387 248.058 41.7625C247.55 41.661 246.954 41.6102 246.268 41.6102C245.177 41.6102 244.326 41.8006 243.717 42.1814C243.108 42.5368 242.803 43.1714 242.803 44.0852V45.3037H249.048C249.2 45.583 249.34 45.9383 249.467 46.3699C249.619 46.7761 249.695 47.233 249.695 47.7407C249.695 48.6292 249.492 49.2765 249.086 49.6826C248.705 50.0634 248.185 50.2538 247.525 50.2538H243.146V62.3243C242.892 62.4005 242.486 62.4767 241.927 62.5528C241.394 62.629 240.836 62.667 240.252 62.667C239.694 62.667 239.186 62.629 238.729 62.5528C238.297 62.4767 237.929 62.3243 237.625 62.0959C237.32 61.8674 237.079 61.5628 236.901 61.182C236.749 60.7759 236.673 60.2555 236.673 59.6208V43.8568ZM268.012 56.8412C268.012 58.7705 267.288 60.2809 265.842 61.3724C264.395 62.464 262.262 63.0097 259.445 63.0097C258.378 63.0097 257.388 62.9336 256.474 62.7813C255.561 62.629 254.774 62.4005 254.114 62.0959C253.479 61.7659 252.971 61.3597 252.591 60.8774C252.235 60.3951 252.057 59.8239 252.057 59.1639C252.057 58.5547 252.184 58.047 252.438 57.6408C252.692 57.2093 252.997 56.8539 253.352 56.5747C254.088 56.9808 254.926 57.3489 255.865 57.6789C256.83 57.9835 257.934 58.1358 259.178 58.1358C259.965 58.1358 260.561 58.0216 260.968 57.7931C261.399 57.5647 261.615 57.26 261.615 56.8793C261.615 56.5239 261.463 56.2446 261.158 56.0416C260.853 55.8385 260.346 55.6735 259.635 55.5466L258.493 55.3181C256.284 54.8866 254.634 54.2139 253.543 53.3C252.476 52.3607 251.943 51.028 251.943 49.3019C251.943 48.3626 252.146 47.5122 252.553 46.7507C252.959 45.9891 253.53 45.3545 254.266 44.8468C255.002 44.3391 255.878 43.9456 256.893 43.6664C257.934 43.3872 259.076 43.2475 260.32 43.2475C261.26 43.2475 262.135 43.3237 262.948 43.476C263.785 43.6029 264.509 43.806 265.118 44.0852C265.727 44.3645 266.21 44.7326 266.565 45.1895C266.92 45.621 267.098 46.1414 267.098 46.7507C267.098 47.3345 266.984 47.8422 266.755 48.2738C266.552 48.6799 266.286 49.0226 265.956 49.3019C265.753 49.1749 265.448 49.048 265.042 48.9211C264.636 48.7688 264.192 48.6418 263.709 48.5403C263.227 48.4134 262.732 48.3118 262.224 48.2357C261.742 48.1595 261.298 48.1215 260.891 48.1215C260.054 48.1215 259.406 48.223 258.95 48.4261C258.493 48.6038 258.264 48.8957 258.264 49.3019C258.264 49.5811 258.391 49.8096 258.645 49.9873C258.899 50.1649 259.381 50.3299 260.092 50.4823L261.272 50.7488C263.709 51.3073 265.435 52.0815 266.451 53.0715C267.492 54.0362 268.012 55.2927 268.012 56.8412Z" fill="#E5E5E5"/>
<defs>
<radialGradient id="paint0_angular" cx="0" cy="0" r="1" gradientUnits="userSpaceOnUse" gradientTransform="translate(65.1943 40.6535) rotate(110.172) scale(25.7438)">
<stop offset="0.130495" stop-color="#F03E3E"/>
<stop offset="0.308032" stop-color="#F9CF3D"/>
<stop offset="0.498198" stop-color="#6AD074"/>
<stop offset="0.710487" stop-color="#3D9FF9"/>
<stop offset="0.885417" stop-color="#A63DF9"/>
</radialGradient>
<linearGradient id="paint1_linear" x1="5.51655" y1="29.4215" x2="53.3265" y2="74.4731" gradientUnits="userSpaceOnUse">
<stop stop-color="#0500FF"/>
<stop offset="0.291667" stop-color="#5111D9"/>
<stop offset="0.401042" stop-color="#5111D9"/>
<stop offset="0.59375" stop-color="#5111D9"/>
<stop offset="0.71875" stop-color="#5111D9"/>
<stop offset="1" stop-color="#000AFF"/>
</linearGradient>
</defs>
</svg>
